<svg xmlns="http://www.w3.org/2000/svg" xmlns:xlink="http://www.w3.org/1999/xlink" viewBox="0 0 1016 638" width="1016" height="638">
  <defs>
    <style>
      @import url('https://fonts.googleapis.com/css2?family=Space+Mono:wght@400;700&amp;display=swap');
      text { font-family: 'Space Mono', monospace; }
    </style>
    <clipPath id="avatar-clip">
      <circle cx="254" cy="319" r="160"/>
    </clipPath>
  </defs>

  <!-- 背景 -->
  <rect width="1016" height="638" fill="#0a0a0a"/>

  <!-- 左半分: アバターアイコン -->
  <image
    href="assets/icon.jpeg"
    x="94" y="159"
    width="320" height="320"
    clip-path="url(#avatar-clip)"
    preserveAspectRatio="xMidYMid slice"
  />
  <circle cx="254" cy="319" r="160" fill="none" stroke="#1a1a1a" stroke-width="1"/>

  <!-- 右半分: 縦中央揃えのテキストブロック -->

  <!-- 名前ブロック -->
  <text x="560" y="230" fill="#ffffff" font-size="46" font-weight="700" letter-spacing="-1">Hasuto</text>
  <text x="562" y="258" fill="#555555" font-size="14" font-weight="400" letter-spacing="2">Hasuto Sasaki</text>

  <!-- 職種・所属ブロック -->
  <text x="562" y="300" fill="#888888" font-size="16" font-weight="400">Classmethod</text>
  <text x="562" y="326" fill="#666666" font-size="14" font-weight="400">Backend Engineer</text>
  <text x="562" y="350" fill="#555555" font-size="13" font-weight="400" letter-spacing="1">TypeScript / Go</text>

  <!-- セパレーター -->
  <line x1="560" y1="380" x2="936" y2="380" stroke="#1a1a1a" stroke-width="0.5"/>

  <!-- ソーシャル: X -->
  <g transform="translate(560, 404)">
    <g transform="scale(0.667)" fill="#ffffff">
      <path d="M18.244 2.25h3.308l-7.227 8.26 8.502 11.24H16.17l-5.214-6.817L4.99 21.75H1.68l7.73-8.835L1.254 2.25H8.08l4.713 6.231zm-1.161 17.52h1.833L7.084 4.126H5.117z"/>
    </g>
    <text x="26" y="13" fill="#666666" font-size="14" font-weight="400">@hasuto00</text>
  </g>

  <!-- ソーシャル: GitHub -->
  <g transform="translate(560, 436)">
    <g transform="scale(0.667)" fill="#ffffff">
      <path d="M12 0C5.37 0 0 5.37 0 12c0 5.31 3.435 9.795 8.205 11.385.6.105.825-.255.825-.57 0-.285-.015-1.23-.015-2.235-3.015.555-3.795-.735-4.035-1.41-.135-.345-.72-1.41-1.23-1.695-.42-.225-1.02-.78-.015-.795.945-.015 1.62.87 1.845 1.23 1.08 1.815 2.805 1.305 3.495.99.105-.78.42-1.305.765-1.605-2.67-.3-5.46-1.335-5.46-5.925 0-1.305.465-2.385 1.23-3.225-.12-.3-.54-1.53.12-3.18 0 0 1.005-.315 3.3 1.23.96-.27 1.98-.405 3-.405s2.04.135 3 .405c2.295-1.56 3.3-1.23 3.3-1.23.66 1.65.24 2.88.12 3.18.765.84 1.23 1.905 1.23 3.225 0 4.605-2.805 5.625-5.475 5.925.435.375.81 1.095.81 2.22 0 1.605-.015 2.895-.015 3.3 0 .315.225.69.825.57A12.02 12.02 0 0024 12c0-6.63-5.37-12-12-12z"/>
    </g>
    <text x="26" y="13" fill="#666666" font-size="14" font-weight="400">github.com/HasutoSasaki</text>
  </g>
</svg>
